PathFileType	4	(X/Y/Z)	T:\Spectrum_Optical_Capture\Spectrum_Demo_10_05_01_TRUECOMBAT\07_Smooth_Trc\TC_Jog_1.trc
DataRate	CameraRate	NumFrames	NumMarkers	Units	OrigDataRate	OrigDataStartFrame	OrigNumFrames
60.0	60.0	       4	46	mm	60.0	64	       504
Frame#	Time	HeadTop			ForeHead			LFrontHead			RFrontHead			TopSpine			Sternum			Scapula			LFShoulder			LShoulder			LBicep			LOuterElbow			LHand			LWristPinky			LWristThumb			RFShoulder			RShoulder			RBicep			ROuterElbow			RHand			RWristPinky			RWristThumb			MiddleBack			LowerBack			Root			Pelvis			LBackWaist			RBackWaist			LFrontWaist			RFrontWaist			Bellymarker			LThigh			LOuterKnee			LAnkle			LHeel			LOuterMeta			LToe			RThigh			ROuterKnee			RAnkle			RHeel			ROuterMeta			RToe			Floor1			Floor2			Floor3			Floor4			
		X1	Y1	Z1	X2	Y2	Z2	X3	Y3	Z3	X4	Y4	Z4	X5	Y5	Z5	X6	Y6	Z6	X7	Y7	Z7	X8	Y8	Z8	X9	Y9	Z9	X10	Y10	Z10	X11	Y11	Z11	X12	Y12	Z12	X13	Y13	Z13	X14	Y14	Z14	X15	Y15	Z15	X16	Y16	Z16	X17	Y17	Z17	X18	Y18	Z18	X19	Y19	Z19	X20	Y20	Z20	X21	Y21	Z21	X22	Y22	Z22	X23	Y23	Z23	X24	Y24	Z24	X25	Y25	Z25	X26	Y26	Z26	X27	Y27	Z27	X28	Y28	Z28	X29	Y29	Z29	X30	Y30	Z30	X31	Y31	Z31	X32	Y32	Z32	X33	Y33	Z33	X34	Y34	Z34	X35	Y35	Z35	X36	Y36	Z36	X37	Y37	Z37	X38	Y38	Z38	X39	Y39	Z39	X40	Y40	Z40	X41	Y41	Z41	X42	Y42	Z42	X43	Y43	Z43	X44	Y44	Z44	X45	Y45	Z45	X46	Y46	Z46	

64	1.050	-3031.92432	1664.49707	-3520.68823	-2972.66260	1543.48816	-3419.80298	-2940.73706	1533.68579	-3535.11743	-3085.15601	1547.17957	-3424.07129	-3142.73657	1358.01868	-3639.46411	-2992.90039	1167.93982	-3438.62842	-3260.96655	1228.71521	-3585.29272	-2953.26099	1280.62732	-3514.45142	-2947.03564	1366.12793	-3675.99927	-2811.80835	1249.89722	-3761.48608	-2816.77026	1138.85840	-3824.44092	-2579.82397	1104.72656	-3867.38892	-2538.86572	1033.17212	-3925.96729	-2445.99854	1046.48340	-3887.25098	-3079.85059	1278.89575	-3422.11084	-3220.29297	1369.72229	-3462.22803	-3347.61377	1257.34729	-3419.62793	-3409.57007	1139.18762	-3350.62378	-3487.67212	1104.85352	-3126.80493	-3548.50952	1036.30664	-3093.63037	-3534.20972	1041.35791	-2996.21411	-3157.24951	1269.24048	-3657.79297	-3157.68750	1143.88489	-3654.05005	-3152.34570	1032.73572	-3641.38159	-3009.38770	1063.32251	-3700.83154	-3022.77686	945.31628	-3696.28394	-3244.66455	950.72693	-3520.23730	-2921.96460	945.08380	-3591.00562	-3178.63184	955.22614	-3391.57715	-2980.49585	969.83600	-3401.88086	-2951.75366	682.88318	-3695.17114	-2962.28955	514.74994	-3691.76733	-2985.97583	117.15356	-3750.07813	-3069.21973	42.82432	-3755.58545	-2921.09155	20.08561	-3711.69385	-2886.47852	26.40705	-3585.70313	-3213.14014	683.98114	-3381.52759	-3248.15747	532.52179	-3452.59229	-3305.01147	136.20317	-3510.26611	-3295.01611	45.86878	-3610.26074	-3294.99878	19.55708	-3450.55762	-3180.63379	31.94316	-3395.04443	4200.60205	32.68645	-4241.04004	-3732.45947	-12.34961	-4191.15967	-3783.52075	-15.47896	4949.66162	4163.05762	21.44188	4905.46191	
65	1.067	-3031.45068	1664.40186	-3519.80908	-2971.39941	1542.99048	-3418.85132	-2940.13965	1533.57300	-3534.05493	-3084.18750	1547.09998	-3422.86475	-3141.92993	1358.02856	-3638.45752	-2992.48486	1167.39050	-3437.27490	-3260.43164	1228.56470	-3585.12476	-2952.35620	1279.89758	-3513.19702	-2944.56885	1364.72961	-3675.52734	-2812.21826	1241.23157	-3758.22925	-2821.28149	1129.77246	-3820.93311	-2585.93750	1083.14075	-3859.34888	-2547.78198	1009.40137	-3916.65479	-2454.63647	1018.10974	-3876.30127	-3079.85059	1278.81311	-3420.61523	-3221.07251	1368.03992	-3460.30908	-3346.31689	1250.84338	-3419.78394	-3404.34155	1128.38574	-3354.79907	-3479.53711	1083.43091	-3131.77588	-3538.60107	1012.28021	-3101.28223	-3523.34814	1013.57660	-3003.86255	-3156.69385	1269.31055	-3657.17041	-3157.28345	1143.85596	-3653.52686	-3151.89893	1032.67090	-3641.12793	-3009.16846	1063.08105	-3699.86353	-3022.31421	945.24219	-3695.60669	-3244.49292	950.82349	-3519.99951	-2921.74463	945.18494	-3590.39990	-3178.33203	955.06476	-3391.21655	-2980.43286	969.38562	-3401.62988	-2951.73828	682.86914	-3694.98877	-2962.11816	514.67944	-3691.66357	-2986.03882	117.09515	-3750.21338	-3069.29492	42.79279	-3755.60303	-2921.00537	19.73514	-3711.57349	-2886.47583	26.42249	-3585.69238	-3212.98267	683.85315	-3381.49072	-3248.25195	532.61224	-3452.83423	-3304.81860	136.31316	-3509.89844	-3295.04028	45.83727	-3610.25854	-3295.10400	19.57861	-3450.60205	-3180.70166	31.93443	-3395.00562	4200.72852	32.70958	-4241.03174	-3732.45874	-12.30518	-4191.09961	-3783.48364	-15.49433	4949.63281	4162.98438	21.51814	4905.37842	
66	1.083	-3030.97607	1664.28040	-3518.82227	-2969.79443	1542.42334	-3417.84521	-2939.25928	1533.50916	-3532.68188	-3083.33081	1547.02209	-3421.61035	-3141.05835	1357.97803	-3637.30078	-2992.07715	1166.83167	-3435.90747	-3260.08984	1228.56921	-3585.28076	-2951.54272	1279.14136	-3511.83008	-2942.41333	1363.27686	-3674.90356	-2813.28271	1232.28723	-3754.49634	-2826.35181	1120.74500	-3817.09326	-2593.34937	1061.55347	-3850.66772	-2558.07935	985.33618	-3906.71826	-2464.81885	989.65369	-3864.67065	-3079.67627	1278.59204	-3419.27612	-3221.89697	1366.15430	-3458.35229	-3344.92505	1244.38171	-3420.14551	-3398.86206	1117.84717	-3359.37671	-3470.65967	1061.96130	-3137.98682	-3527.76929	987.97919	-3110.01782	-3511.81909	985.70172	-3012.84229	-3156.08301	1269.42456	-3656.55762	-3156.82666	1143.82227	-3652.95923	-3151.46948	1032.53674	-3640.77954	-3008.87305	1062.95911	-3699.14160	-3022.13306	945.17487	-3695.00317	-3244.31616	950.92291	-3519.79443	-2921.53979	945.32715	-3590.04346	-3178.02148	954.87866	-3391.02710	-2980.67261	968.78040	-3401.36597	-2951.71582	682.89630	-3694.83691	-2961.93848	514.61578	-3691.55225	-2986.09888	117.03976	-3750.35693	-3069.33594	42.75636	-3755.62305	-2920.92358	19.38620	-3711.44946	-2886.51025	26.45453	-3585.67456	-3212.75854	683.82336	-3381.44092	-3248.33008	532.68945	-3453.10059	-3304.69507	136.38298	-3509.64844	-3295.06909	45.80285	-3610.24756	-3295.31250	19.62268	-3450.65845	-3180.78223	31.95079	-3395.01758	4200.79639	32.69561	-4241.01025	-3732.50659	-12.24854	-4191.05078	-3783.42627	-15.52492	4949.57031	4162.85693	21.56829	4905.20508	
67	1.100	-3030.45776	1664.15259	-3517.65015	-2968.11401	1541.88354	-3416.68848	-2938.14502	1533.47144	-3531.09814	-3082.67554	1546.89063	-3420.34814	-3140.15088	1357.94702	-3635.99438	-2991.65601	1166.35767	-3434.70190	-3260.13403	1228.80127	-3585.94800	-2950.86060	1278.37830	-3510.47607	-2940.58398	1361.74829	-3674.14258	-2814.77686	1223.12573	-3750.40479	-2831.91333	1111.69495	-3812.69800	-2602.03149	1040.05444	-3841.51611	-2569.72632	961.19482	-3896.09985	-2476.73242	961.47278	-3852.45776	-3079.25366	1278.13281	-3418.24878	-3222.47095	1364.15100	-3456.16553	-3343.17578	1237.96790	-3420.48999	-3393.19482	1107.65613	-3364.28271	-3461.21436	1040.59827	-3145.37671	-3516.07568	963.76733	-3119.72168	-3499.42529	957.94629	-3022.98657	-3155.40405	1269.59668	-3655.91968	-3156.22290	1143.78967	-3652.33398	-3151.04395	1032.37207	-3640.34570	-3008.52490	1062.90186	-3698.70850	-3022.01465	945.16833	-3694.52100	-3244.10522	950.99994	-3519.59741	-2921.36426	945.42499	-3589.86865	-3177.64697	954.68353	-3390.92407	-2981.03882	968.01080	-3401.00000	-2951.66260	682.94287	-3694.70190	-2961.77759	514.55664	-3691.41626	-2986.13599	116.99142	-3750.47827	-3069.27979	42.70012	-3755.63647	-2920.86694	19.17701	-3711.35498	-2886.55835	26.49889	-3585.66260	-3212.48999	683.92578	-3381.33691	-3248.34229	532.71619	-3453.36035	-3304.73145	136.39954	-3509.65259	-3295.10718	45.77314	-3610.23145	-3295.51611	19.65418	-3450.70386	-3180.87305	31.98685	-3395.05957	4200.74316	32.61629	-4240.98389	-3732.60156	-12.18516	-4191.02100	-3783.37280	-15.56069	4949.50977	4162.70947	21.49555	4905.05811	
